# File created by Blade
# Date/Time:  Fri Jan 16 19:41:12 2015
# Frame Rate: 120.000 fps
#------------------------------------------------------
:FULLY-SPECIFIED
:DEGREES
273
root 18.570468 35.528103 -21.691242 12.174983 8.770867 -0.307873
Spine -27.701751 -14.627135 -0.347746
Head 20.185601 5.451378 10.268035
LeftShoulder 5.787109 -15.362895 -7.507909
LeftArm -113.736590 59.122831 -216.676075
LeftForeArm 40.071409 -0.000000 125.271706
LeftHand 7.109880 0.000000 -17.484878
LeftHandThumb1 -26.253704 0.000000 33.147579
RightShoulder -16.666980 26.190012 -33.734497
RightArm 147.415063 65.342081 124.666682
RightForeArm 17.437352 -0.000000 158.515250
RightHand 0.726634 -0.000000 -42.964161
RightHandThumb1 -24.326973 -0.000000 -32.862282
LeftUpLeg -2.870747 2.235977 1.439799
LeftLeg -7.490420 -0.000000 0.000000
LeftFoot -19.268093 25.600720 -14.543874
LeftToeBase 24.587375 -0.000000 -0.000000
RightUpLeg -1.869027 -12.951784 -0.208852
RightLeg -3.757274 -0.000000 0.000000
RightFoot -23.694446 -24.365492 21.384600
RightToeBase 22.622090 -0.000000 -0.000000
274
root 18.566628 35.528086 -21.683867 12.195825 8.929457 -0.295809
Spine -27.696966 -14.729890 -0.402209
Head 20.186585 5.483087 10.489504
LeftShoulder 5.747262 -15.336415 -7.474494
LeftArm -113.694480 59.157236 -216.634361
LeftForeArm 40.161249 -0.000000 125.254230
LeftHand 7.034350 -0.000000 -17.565210
LeftHandThumb1 -26.253704 0.000000 33.147579
RightShoulder -16.737423 26.188859 -33.771560
RightArm 147.824600 65.083991 124.982068
RightForeArm 17.003490 -0.000000 158.615061
RightHand 0.626042 -0.000000 -43.007006
RightHandThumb1 -24.326973 -0.000000 -32.862282
LeftUpLeg -2.907298 2.194557 1.451176
LeftLeg -7.487165 -0.000000 0.000000
LeftFoot -19.228529 25.511274 -14.494902
LeftToeBase 24.219833 -0.000000 -0.000000
RightUpLeg -1.841464 -13.006704 -0.188190
RightLeg -3.783129 -0.000000 0.000000
RightFoot -23.731411 -24.419608 21.496776
RightToeBase 22.518260 -0.000000 -0.000000
275
root 18.563168 35.527370 -21.677655 12.252656 9.076722 -0.267363
Spine -27.727434 -14.732645 -0.513819
Head 20.197400 5.439052 10.714527
LeftShoulder 5.805700 -15.305927 -7.450995
LeftArm -113.624962 59.188931 -216.587264
LeftForeArm 40.328779 -0.000000 125.202782
LeftHand 7.049981 -0.000000 -17.720037
LeftHandThumb1 -26.253704 0.000000 33.147579
RightShoulder -16.873986 26.199879 -33.884955
RightArm 148.063137 64.992788 125.098962
RightForeArm 16.726168 0.000000 158.669948
RightHand 0.463940 -0.000000 -43.117619
RightHandThumb1 -24.326973 -0.000000 -32.862282
LeftUpLeg -2.964981 2.099062 1.450726
LeftLeg -7.506609 -0.000000 0.000000
LeftFoot -19.195770 25.488632 -14.514625
LeftToeBase 24.244098 -0.000000 -0.000000
RightUpLeg -1.849937 -13.073963 -0.177626
RightLeg -3.811313 -0.000000 0.000000
RightFoot -23.773312 -24.477014 21.539989
RightToeBase 22.477623 -0.000000 -0.000000
276
root 18.562739 35.527501 -21.672193 12.283948 9.207599 -0.250789
Spine -27.736508 -14.831622 -0.564106
Head 20.241847 5.482655 10.949252
LeftShoulder 5.733485 -15.321088 -7.423718
LeftArm -113.531593 59.228474 -216.488952
LeftForeArm 40.378252 0.000000 125.133850
LeftHand 7.111568 -0.000000 -18.002913
LeftHandThumb1 -26.253704 0.000000 33.147579
RightShoulder -16.912773 26.339345 -33.942584
RightArm 148.169336 64.946871 125.070574
RightForeArm 16.719764 0.000000 158.689503
RightHand 0.525071 0.000000 -43.054833
RightHandThumb1 -24.326973 -0.000000 -32.862282
LeftUpLeg -2.999153 2.042810 1.449511
LeftLeg -7.520686 -0.000000 0.000000
LeftFoot -19.173698 25.474785 -14.516212
LeftToeBase 24.613173 -0.000000 -0.000000
RightUpLeg -1.836973 -13.124306 -0.170560
RightLeg -3.834951 -0.000000 0.000000
RightFoot -23.797424 -24.519188 21.523605
RightToeBase 22.520194 -0.000000 -0.000000
277
root 18.559852 35.527026 -21.664965 12.327227 9.330172 -0.234635
Spine -27.766717 -14.865671 -0.645275
Head 20.302571 5.442912 11.159808
LeftShoulder 5.699685 -15.313689 -7.407255
LeftArm -113.513641 59.253031 -216.461820
LeftForeArm 40.415663 0.000000 125.109777
LeftHand 7.007433 -0.000000 -18.219379
LeftHandThumb1 -26.253704 0.000000 33.147579
RightShoulder -17.025242 26.383874 -34.032222
RightArm 148.187997 64.933518 124.943656
RightForeArm 16.642459 -0.000000 158.677157
RightHand 0.538072 -0.000000 -42.931520
RightHandThumb1 -24.326973 -0.000000 -32.862282
LeftUpLeg -3.044307 2.026691 1.450546
LeftLeg -7.532630 -0.000000 0.000000
LeftFoot -19.132290 25.407529 -14.473767
LeftToeBase 24.638183 -0.000000 -0.000000
RightUpLeg -1.836817 -13.196774 -0.154590
RightLeg -3.858998 -0.000000 0.000000
RightFoot -23.818562 -24.544146 21.592280
RightToeBase 22.440004 -0.000000 -0.000000
278
root 18.558015 35.526388 -21.657280 12.363415 9.466868 -0.210750
Spine -27.794575 -14.913382 -0.722606
Head 20.374588 5.416246 11.341581
LeftShoulder 5.673250 -15.327764 -7.408411
LeftArm -113.518411 59.241860 -216.457126
LeftForeArm 40.499157 -0.000000 125.102182
LeftHand 6.875451 -0.000000 -18.396191
LeftHandThumb1 -26.253704 0.000000 33.147579
RightShoulder -17.149535 26.314541 -34.110939
RightArm 148.278686 64.867398 124.874017
RightForeArm 16.607057 -0.000000 158.665546
RightHand 0.579126 -0.000000 -42.718180
RightHandThumb1 -24.326973 -0.000000 -32.862282
LeftUpLeg -3.080921 1.964932 1.447682
LeftLeg -7.546374 -0.000000 0.000000
LeftFoot -19.093493 25.367538 -14.451410
LeftToeBase 24.624526 -0.000000 -0.000000
RightUpLeg -1.815075 -13.294940 -0.143824
RightLeg -3.910185 -0.000000 0.000000
RightFoot -23.833583 -24.592935 21.552258
RightToeBase 22.552511 -0.000000 -0.000000
279
root 18.556353 35.526116 -21.650632 12.413025 9.582130 -0.188400
Spine -27.839931 -14.942719 -0.792239
Head 20.467872 5.406570 11.516501
LeftShoulder 5.621621 -15.356213 -7.422383
LeftArm -113.539973 59.222511 -216.438537
LeftForeArm 40.528289 -0.000000 125.118694
LeftHand 6.751115 -0.000000 -18.572912
LeftHandThumb1 -26.253704 0.000000 33.147579
RightShoulder -17.271358 26.229797 -34.192952
RightArm 148.328331 64.807207 124.787777
RightForeArm 16.552516 0.000000 158.614351
RightHand 0.689548 -0.000000 -42.323520
RightHandThumb1 -24.326973 -0.000000 -32.862282
LeftUpLeg -3.133113 1.925791 1.442687
LeftLeg -7.551094 -0.000000 0.000000
LeftFoot -19.054578 25.309718 -14.433411
LeftToeBase 24.639177 -0.000000 -0.000000
RightUpLeg -1.821260 -13.371485 -0.134659
RightLeg -3.935560 -0.000000 0.000000
RightFoot -23.851319 -24.622002 21.556457
RightToeBase 22.562163 -0.000000 -0.000000
280
root 18.554807 35.525565 -21.644396 12.480032 9.697734 -0.174394
Spine -27.921201 -14.963979 -0.834124
Head 20.592124 5.424966 11.674259
LeftShoulder 5.585511 -15.387842 -7.456565
LeftArm -113.519127 59.186581 -216.374906
LeftForeArm 40.476592 0.000000 125.123885
LeftHand 6.828178 -0.000000 -18.509784
LeftHandThumb1 -26.253704 0.000000 33.147579
RightShoulder -17.382294 26.191692 -34.310494
RightArm 148.224214 64.829441 124.511350
RightForeArm 16.498459 -0.000000 158.541786
RightHand 0.819091 -0.000000 -41.918021
RightHandThumb1 -24.326973 -0.000000 -32.862282
LeftUpLeg -3.203000 1.874527 1.447155
LeftLeg -7.559160 -0.000000 0.000000
LeftFoot -19.027239 25.269785 -14.416436
LeftToeBase 24.676346 -0.000000 -0.000000
RightUpLeg -1.845807 -13.455986 -0.111276
RightLeg -3.969323 -0.000000 0.000000
RightFoot -23.857918 -24.633159 21.651583
RightToeBase 22.407528 -0.000000 -0.000000
281
root 18.553739 35.524855 -21.637328 12.527262 9.792429 -0.156957
Spine -27.989991 -14.974273 -0.877265
Head 20.749806 5.443775 11.812563
LeftShoulder 5.555620 -15.406249 -7.480768
LeftArm -113.542203 59.190961 -216.350621
LeftForeArm 40.317398 0.000000 125.139368
LeftHand 6.927584 -0.000000 -18.298368
LeftHandThumb1 -26.253704 0.000000 33.147579
RightShoulder -17.458740 26.408414 -34.450262
RightArm 147.675293 65.009847 123.731723
RightForeArm 16.471440 0.000000 158.418855
RightHand 0.955722 0.000000 -41.354788
RightHandThumb1 -24.326973 -0.000000 -32.862282
LeftUpLeg -3.245142 1.818794 1.447940
LeftLeg -7.571863 -0.000000 0.000000
LeftFoot -18.998188 25.220256 -14.394415
LeftToeBase 24.278675 -0.000000 -0.000000
RightUpLeg -1.852673 -13.520801 -0.100891
RightLeg -3.996065 -0.000000 0.000000
RightFoot -23.876145 -24.657852 21.609864
RightToeBase 22.483604 -0.000000 -0.000000
282
root 18.553528 35.523599 -21.632212 12.608779 9.850436 -0.138584
Spine -28.098432 -14.942291 -0.930001
Head 20.879275 5.402269 11.952933
LeftShoulder 5.524841 -15.436167 -7.484600
LeftArm -113.527581 59.186187 -216.302879
LeftForeArm 39.975536 -0.000000 125.146220
LeftHand 7.191581 -0.000000 -17.743318
LeftHandThumb1 -26.253704 0.000000 33.147579
RightShoulder -17.560442 26.315955 -34.564443
RightArm 147.508188 65.022856 123.390938
RightForeArm 16.245305 -0.000000 158.313549
RightHand 1.117987 -0.000000 -40.733213
RightHandThumb1 -24.326973 -0.000000 -32.862282
LeftUpLeg -3.310891 1.766207 1.442276
LeftLeg -7.597383 -0.000000 0.000000
LeftFoot -18.981966 25.238826 -14.405263
LeftToeBase 24.654405 -0.000000 -0.000000
RightUpLeg -1.906935 -13.554980 -0.090025
RightLeg -4.014227 -0.000000 0.000000
RightFoot -23.901097 -24.677232 21.625222
RightToeBase 22.499420 -0.000000 -0.000000
283
root 18.553040 35.521897 -21.624312 12.669664 9.918077 -0.130250
Spine -28.185706 -14.929686 -0.963519
Head 20.992946 5.413602 12.101949
LeftShoulder 5.449224 -15.466394 -7.480986
LeftArm -113.614386 59.169409 -216.393391
LeftForeArm 39.404612 -0.000000 125.118610
LeftHand 7.378914 -0.000000 -17.134183
LeftHandThumb1 -26.253704 0.000000 33.147579
RightShoulder -17.649966 26.211237 -34.665500
RightArm 147.460999 64.927962 123.197474
RightForeArm 16.165220 -0.000000 158.229106
RightHand 1.319358 -0.000000 -39.932600
RightHandThumb1 -24.326973 -0.000000 -32.862282
LeftUpLeg -3.358066 1.734864 1.448076
LeftLeg -7.616786 -0.000000 0.000000
LeftFoot -18.969827 25.205952 -14.392623
LeftToeBase 24.707154 -0.000000 -0.000000
RightUpLeg -1.929260 -13.602279 -0.073513
RightLeg -4.041045 -0.000000 0.000000
RightFoot -23.903446 -24.666597 21.684791
RightToeBase 22.366201 -0.000000 -0.000000
284
root 18.552517 35.519522 -21.614449 12.696371 9.992171 -0.126956
Spine -28.233187 -14.933846 -0.996053
Head 21.118569 5.440011 12.253391
LeftShoulder 5.406825 -15.505534 -7.484307
LeftArm -113.609658 59.141975 -216.388994
LeftForeArm 38.999934 -0.000000 125.148061
LeftHand 7.469023 -0.000000 -16.449531
LeftHandThumb1 -26.253704 0.000000 33.147579
RightShoulder -17.700130 26.096197 -34.747321
RightArm 147.443399 64.881783 123.011523
RightForeArm 15.714264 -0.000000 158.168266
RightHand 1.324967 -0.000000 -39.224597
RightHandThumb1 -24.326973 -0.000000 -32.862282
LeftUpLeg -3.365270 1.658763 1.467146
LeftLeg -7.642176 -0.000000 0.000000
LeftFoot -18.960116 25.215767 -14.372188
LeftToeBase 24.671805 -0.000000 -0.000000
RightUpLeg -1.910035 -13.674460 -0.056943
RightLeg -4.080193 -0.000000 0.000000
RightFoot -23.911240 -24.684828 21.657484
RightToeBase 22.403374 -0.000000 -0.000000
285
root 18.553081 35.517629 -21.603645 12.719822 10.043288 -0.118382
Spine -28.284688 -14.909228 -1.029728
Head 21.244422 5.473663 12.374496
LeftShoulder 5.313206 -15.587649 -7.484587
LeftArm -113.647425 59.070014 -216.423721
LeftForeArm 38.598482 -0.000000 125.237572
LeftHand 7.678756 -0.000000 -16.066146
LeftHandThumb1 -26.253704 0.000000 33.147579
RightShoulder -17.746816 26.029874 -34.855974
RightArm 147.396213 64.809506 122.830828
RightForeArm 15.315420 0.000000 158.098742
RightHand 1.373307 0.000000 -38.524336
RightHandThumb1 -24.326973 -0.000000 -32.862282
LeftUpLeg -3.354505 1.590719 1.475592
LeftLeg -7.682716 -0.000000 0.000000
LeftFoot -18.944999 25.223959 -14.365877
LeftToeBase 24.676687 -0.000000 -0.000000
RightUpLeg -1.890227 -13.713316 -0.052547
RightLeg -4.115301 -0.000000 0.000000
RightFoot -23.915680 -24.685220 21.681843
RightToeBase 22.387657 -0.000000 -0.000000
